<?xml version="1.0" encoding="UTF-8" standalone="no"?>
<svg
   viewBox="0 0 8000 1600"
   width="8000"
   height="1600"
   version="1.1"
   id="svg1"
   sodipodi:docname="bristol-predict-title1.svg"
   inkscape:version="1.4.2 (ebf0e940, 2025-05-08)"
   xmlns:inkscape="http://www.inkscape.org/namespaces/inkscape"
   xmlns:sodipodi="http://sodipodi.sourceforge.net/DTD/sodipodi-0.dtd"
   xmlns="http://www.w3.org/2000/svg"
   xmlns:svg="http://www.w3.org/2000/svg">
  
  <!-- Extra padding around the text for the effect -->
  <path
     d="m 701.80917,974.88989 q 0,52.73441 -21.48438,94.23831 -20.99609,41.5039 -58.10546,68.8476 -42.96875,32.2266 -94.72657,45.8985 -51.26953,13.6718 -130.37109,13.6718 H 79.738857 V 470.49536 H 361.96542 q 87.89062,0 128.41797,5.85938 41.01562,5.85937 81.05469,25.8789 41.5039,20.9961 61.52343,56.64063 20.50782,35.15625 20.50782,80.5664 0,52.73438 -27.83204,93.26172 -27.83203,40.03907 -78.61328,62.5 v 3.90625 q 71.28907,14.16016 112.79297,58.59375 41.99219,44.4336 41.99219,117.1875 z M 461.57479,676.06177 q 0,-18.06641 -9.27734,-36.13281 -8.78906,-18.06641 -31.73828,-26.85547 -20.50781,-7.8125 -51.26953,-8.30078 -30.27344,-0.97657 -85.44922,-0.97657 h -17.57813 v 153.8086 h 29.29688 q 44.43359,0 75.68359,-1.46485 31.25,-1.46484 49.31641,-9.76562 25.39062,-11.23047 33.20312,-28.8086 7.8125,-18.0664 7.8125,-41.5039 z m 45.89844,295.89844 q 0,-34.66797 -13.67187,-53.22266 -13.1836,-19.04297 -45.41016,-28.32031 -21.97266,-6.34766 -60.54687,-6.83594 -38.57422,-0.48828 -80.56641,-0.48828 h -41.01563 v 181.15238 h 13.67188 q 79.10156,0 113.28125,-0.4883 34.17969,-0.4883 62.98828,-12.6953 29.29688,-12.2071 40.03906,-32.2266 11.23047,-20.50781 11.23047,-46.87499 z M 1229.1529,816.68677 h -15.625 q -11.2304,-3.90625 -36.1328,-5.85938 -24.9023,-1.95312 -41.5039,-1.95312 -37.5977,0 -66.4062,4.88281 -28.8086,4.88281 -62.0118,16.60156 V 1197.5461 H 831.69198 V 649.2063 h 175.78122 v 80.56641 q 58.1055,-49.80469 101.0743,-65.91797 42.9687,-16.60157 79.1015,-16.60157 9.2774,0 20.9961,0.48829 11.7188,0.48828 20.5078,1.46484 z m 275.3906,380.85933 H 1328.7623 V 649.2063 h 175.7812 z m 4.8829,-626.4648 H 1323.8795 V 437.78052 h 185.5469 z m 637.6953,452.6367 q 0,84.961 -76.1719,137.207 -76.1719,51.7579 -208.4961,51.7579 -73.2422,0 -132.8125,-13.6719 -59.5703,-13.6719 -95.7031,-30.2735 v -144.5312 h 16.1133 q 13.1836,9.2773 30.2734,20.5078 17.5781,10.7422 49.3164,23.4375 27.3438,11.2305 62.0117,19.5313 34.668,7.8125 74.2188,7.8125 51.7578,0 76.6601,-11.2305 24.9024,-11.7188 24.9024,-34.1797 0,-20.0195 -14.6485,-28.8086 -14.6484,-9.2773 -55.664,-17.5781 -19.5313,-4.39454 -53.2227,-9.27736 -33.2031,-5.37109 -60.5469,-12.69531 -74.707,-19.53125 -110.8398,-60.54687 -36.1328,-41.50391 -36.1328,-103.02735 0,-79.10156 74.707,-131.34765 75.1953,-52.73438 205.0781,-52.73438 61.5235,0 117.6758,12.69531 56.6406,12.20703 88.3789,26.36719 v 138.67188 h -15.1367 q -39.0625,-26.85547 -89.3555,-43.45704 -49.8046,-17.08984 -101.0742,-17.08984 -42.4804,0 -71.7773,11.71875 -28.8086,11.71875 -28.8086,33.20313 0,19.53125 13.1836,29.78515 13.1836,10.25391 62.0117,20.50781 26.8555,5.3711 57.6172,10.74219 31.25,4.88281 62.5,12.69531 69.3359,18.06641 102.539,57.12891 33.2032,38.57422 33.2032,96.67967 z m 467.2851,168.9453 q -28.3203,7.3242 -60.0586,11.2305 -31.7382,4.3945 -77.6367,4.3945 -102.539,0 -152.832,-41.5039 -49.8047,-41.5039 -49.8047,-142.0898 V 768.34692 h -72.2656 V 649.2063 h 72.2656 V 492.46802 H 2449.856 V 649.2063 h 164.5508 V 768.34692 H 2449.856 v 194.33594 q 0,28.8086 0.4883,50.29294 0.4883,21.4844 7.8125,38.5742 6.836,17.0899 23.9258,27.3438 17.5781,9.7656 50.7813,9.7656 13.6718,0 35.6445,-5.8594 22.4609,-5.8593 31.25,-10.7421 h 14.6484 z m 665.5274,-269.04294 q 0,135.25394 -79.1016,213.37894 -78.6133,77.6367 -221.1914,77.6367 -142.5781,0 -221.6797,-77.6367 -78.6133,-78.125 -78.6133,-213.37894 0,-136.23047 79.1016,-213.86719 79.5898,-77.63671 221.1914,-77.63671 143.5547,0 221.6797,78.125 78.6133,78.125 78.6133,213.3789 z m -216.3086,133.30074 q 17.0898,-20.9961 25.3906,-50.2929 8.7891,-29.78518 8.7891,-82.03128 0,-48.33984 -8.7891,-81.05468 -8.7891,-32.71485 -24.4141,-52.2461 -15.625,-20.01953 -37.5976,-28.32031 -21.9727,-8.30078 -47.3633,-8.30078 -25.3906,0 -45.4102,6.83594 -19.5312,6.83593 -37.5976,27.34375 -16.1133,19.04297 -25.8789,52.24609 -9.2774,33.20313 -9.2774,83.49609 0,44.92188 8.3008,78.12498 8.3008,32.7149 24.4141,52.7344 15.625,19.043 37.1094,27.832 21.9726,8.7891 49.8046,8.7891 23.9258,0 45.4102,-7.8125 21.9727,-8.3008 37.1094,-27.3438 z m 518.0664,140.625 H 3405.9107 V 437.78052 H 3581.692 Z M 4699.3678,699.98755 q 0,48.82812 -17.0899,95.70312 -17.0898,46.38672 -48.8281,78.125 -43.457,42.96875 -97.168,64.94141 -53.2226,21.97266 -132.8125,21.97266 h -116.6992 v 236.81636 h -187.5 V 470.49536 h 308.5938 q 69.3359,0 116.6992,12.20703 47.8515,11.71875 84.4726,35.64453 43.9453,28.8086 66.8946,73.73047 23.4375,44.92188 23.4375,107.91016 z m -193.8477,4.39453 q 0,-30.76172 -16.6016,-52.73437 -16.6015,-22.46094 -38.5742,-31.25 -29.2968,-11.71875 -57.1289,-12.69532 -27.832,-1.46484 -74.2187,-1.46484 h -32.2266 v 217.77344 h 53.7109 q 47.8516,0 78.6133,-5.85938 31.25,-5.85937 52.2461,-23.4375 18.0664,-15.625 25.8789,-37.10937 8.3008,-21.97266 8.3008,-53.22266 z m 714.3555,112.30469 h -15.625 q -11.2305,-3.90625 -36.1328,-5.85938 -24.9024,-1.95312 -41.5039,-1.95312 -37.5977,0 -66.4063,4.88281 -28.8086,4.88281 -62.0117,16.60156 V 1197.5461 H 4822.4146 V 649.2063 h 175.7813 v 80.56641 q 58.1055,-49.80469 101.0742,-65.91797 42.9688,-16.60157 79.1016,-16.60157 9.2773,0 20.9961,0.48829 11.7187,0.48828 20.5078,1.46484 z m 639.6484,139.16015 h -402.3437 q 3.9062,64.45308 48.8281,98.63278 45.4101,34.1797 133.3008,34.1797 55.664,0 107.9101,-20.0195 52.2461,-20.0195 82.5196,-42.9688 h 19.5312 v 141.1133 q -59.5703,23.9258 -112.3047,34.668 -52.7344,10.7422 -116.6992,10.7422 -165.0391,0 -252.9297,-74.2188 -87.8906,-74.2187 -87.8906,-211.42575 0,-135.74219 83.0078,-214.84375 83.4961,-79.58984 228.5156,-79.58984 133.7891,0 201.1719,67.87109 67.3828,67.38281 67.3828,194.33594 z M 5684.7193,852.81958 q -1.4648,-55.17578 -27.3437,-83.00781 -25.8789,-27.83203 -80.5664,-27.83203 -50.7813,0 -83.4961,26.36718 -32.7149,26.36719 -36.6211,84.47266 z m 832.0313,344.72652 h -175.7813 v -57.1289 q -45.4101,37.1094 -84.9609,54.6875 -39.5508,17.5782 -91.3086,17.5782 -100.0977,0 -160.1563,-77.1485 -60.0585,-77.1484 -60.0585,-208.00779 0,-69.82422 20.0195,-123.53515 20.5078,-54.19922 55.664,-92.77344 33.2032,-36.6211 80.5665,-56.64063 47.3632,-20.50781 94.7265,-20.50781 49.3164,0 80.5664,10.74219 31.7383,10.2539 64.9414,26.36719 V 437.78052 h 175.7813 z M 6340.9693,1046.179 V 777.13599 q -18.5547,-7.8125 -39.0625,-11.23047 -20.5078,-3.41797 -37.5976,-3.41797 -69.336,0 -104.0039,43.45703 -34.668,42.96875 -34.668,119.62891 0,80.56641 27.832,117.18751 27.8321,36.1328 89.3555,36.1328 23.9258,0 50.7812,-8.7891 26.8555,-9.2773 47.3633,-23.9257 z m 517.5782,151.3671 H 6682.7662 V 649.2063 h 175.7813 z m 4.8828,-626.4648 H 6677.8834 V 437.78052 h 185.5469 z m 446.7773,641.1133 q -71.7773,0 -131.3476,-17.0899 -59.0821,-17.0898 -103.0274,-52.7343 -43.457,-35.6446 -67.3828,-89.8438 -23.9258,-54.19921 -23.9258,-126.95311 0,-76.66016 25.3906,-132.32422 25.8789,-55.66406 71.7774,-92.28516 44.4336,-34.66797 102.539,-50.78125 58.1055,-16.11328 120.6055,-16.11328 56.1524,0 103.5156,12.20703 47.3633,12.20703 88.3789,31.73828 v 149.90235 h -24.9023 q -10.2539,-8.78907 -24.9023,-20.50782 -14.1602,-11.71875 -35.1563,-22.94921 -20.0195,-10.74219 -43.9453,-17.57813 -23.9258,-7.32422 -55.6641,-7.32422 -70.3125,0 -108.3984,44.92188 -37.5977,44.43359 -37.5977,121.09375 0,79.10151 38.5743,120.11721 39.0625,41.0156 110.3515,41.0156 33.2031,0 59.5703,-7.3242 26.8555,-7.8125 44.4336,-18.0664 16.6016,-9.7657 29.2969,-20.5078 12.6953,-10.7422 23.4375,-20.9961 h 24.9023 v 149.9023 q -41.5039,19.5313 -86.914,30.7617 -44.9219,11.7188 -99.6094,11.7188 z m 653.3203,-19.5313 q -28.3203,7.3242 -60.0586,11.2305 -31.7383,4.3945 -77.6367,4.3945 -102.5391,0 -152.832,-41.5039 -49.8047,-41.5039 -49.8047,-142.0898 V 768.34692 h -72.2656 V 649.2063 h 72.2656 V 492.46802 h 175.7812 V 649.2063 h 164.5508 v 119.14062 h -164.5508 v 194.33594 q 0,28.8086 0.4883,50.29294 0.4883,21.4844 7.8125,38.5742 6.836,17.0899 23.9258,27.3438 17.5781,9.7656 50.7813,9.7656 13.6718,0 35.6445,-5.8594 22.4609,-5.8593 31.25,-10.7421 h 14.6484 z"
     id="text2"
     style="font-weight:bold;font-size:1000px;font-family:Verdana;-inkscape-font-specification:'Verdana, Bold'"
     aria-label="Bristol Predict" />
</svg>
